<?xml version="1.0" encoding="UTF-8"?>
<svg width="12px" height="12px" viewBox="0 0 12 12" version="1.1" xmlns="http://www.w3.org/2000/svg" xmlns:xlink="http://www.w3.org/1999/xlink">
    <!-- Generator: Sketch 48.2 (47327) - http://www.bohemiancoding.com/sketch -->
    <title>Group 3</title>
    <desc>Created with Sketch.</desc>
    <defs>
        <linearGradient x1="0%" y1="50%" x2="100%" y2="50%" id="linearGradient-1">
            <stop stop-color="#F83535" offset="0%"></stop>
            <stop stop-color="#EF388A" offset="100%"></stop>
        </linearGradient>
        <path d="M6.00001995,0 C9.31373343,0 12.000015,2.68630395 12.000015,6.00001433 C12.000015,9.3136998 9.31370853,12.0000037 6.00001995,12.0000037 C2.68630647,12.0000037 0,9.3136998 0,6.00001433 C0,2.68630395 2.68630647,0 6.00001995,0 Z" id="path-2"></path>
    </defs>
    <g id="Solid" stroke="none" stroke-width="1" fill="none" fill-rule="evenodd" transform="translate(-567.000000, -1251.000000)">
        <g id="Group-3" transform="translate(567.000000, 1251.000000)">
            <g id="Shape">
                <use fill="#E83A3A" xlink:href="#path-2"></use>
                <use fill="url(#linearGradient-1)" xlink:href="#path-2"></use>
            </g>
            <path d="M8.22861112,4.30366733 C8.23564734,3.21393938 7.27079971,5.20270774 7.32306646,5.62503589 C6.74552948,4.93551286 6.76924095,4.14244884 6.76924095,3 C4.9170413,3.70934287 5.34772487,5.75407272 5.29232072,6.37502823 C4.82650465,5.98768014 4.73845741,5.06254989 4.73845741,5.06254989 C4.24661867,5.31956755 4,6.00579717 4,6.56253457 C4,7.90871257 5.07452193,9.00005753 6.40000954,9.00005753 C7.72549715,9.00005753 8.80001908,7.90871257 8.80001908,6.56253457 C8.80001908,5.76250754 8.2215749,5.39339528 8.22861112,4.30366733 Z" id="Icon" fill="#FFFFFF"></path>
        </g>
    </g>
</svg>