<?xml version="1.0" encoding="utf-8"?>
<!-- Generator: Adobe Illustrator 18.0.0, SVG Export Plug-In . SVG Version: 6.00 Build 0)  -->
<!DOCTYPE svg PUBLIC "-//W3C//DTD SVG 1.1//EN" "http://www.w3.org/Graphics/SVG/1.1/DTD/svg11.dtd">
<svg version="1.1" id="图层_1" xmlns="http://www.w3.org/2000/svg" xmlns:xlink="http://www.w3.org/1999/xlink" x="0px" y="0px"
	 viewBox="0 0 58.1 49.7" enable-background="new 0 0 58.1 49.7" xml:space="preserve">
<linearGradient id="SVGID_1_" gradientUnits="userSpaceOnUse" x1="38.4559" y1="24.9056" x2="0.3086" y2="24.9056">
	<stop  offset="0" style="stop-color:#088AFB"/>
	<stop  offset="0.4155" style="stop-color:#18A3EB"/>
	<stop  offset="1" style="stop-color:#46E9BE"/>
</linearGradient>
<path fill="url(#SVGID_1_)" d="M19.8,48.7L29.1,25L19.7,1.1c0-0.6-0.5-1.1-1.1-1.1H1.4C0.8,0,0.3,0.5,0.3,1.1L19,48.7
	c0,0.6,0.5,1.1,1.1,1.1h0.8C20.3,49.8,19.8,49.3,19.8,48.7z"/>
<linearGradient id="SVGID_2_" gradientUnits="userSpaceOnUse" x1="57.9507" y1="24.9056" x2="19.8034" y2="24.9056">
	<stop  offset="0" style="stop-color:#088AFB"/>
	<stop  offset="0.6466" style="stop-color:#37D3CC"/>
	<stop  offset="1" style="stop-color:#46E9BE"/>
</linearGradient>
<path fill="url(#SVGID_2_)" d="M56.8,0H39.6c-0.6,0-1.1,0.5-1.1,1.1L29.1,25l9.3,23.7c0,0.6-0.5,1.1-1.1,1.1h0.8
	c0.6,0,1.1-0.5,1.1-1.1L58,1.1C58,0.5,57.4,0,56.8,0z M51.9,10l-5.8,14.6c-0.2,0.5-0.8,0.8-1.3,0.6l-0.8-0.3
	c-0.5-0.2-0.8-0.8-0.6-1.3L49.2,9c0.2-0.5,0.8-0.8,1.3-0.6l0.8,0.3C51.8,8.9,52.1,9.5,51.9,10z"/>
<linearGradient id="SVGID_3_" gradientUnits="userSpaceOnUse" x1="38.4559" y1="37.3922" x2="0.3087" y2="37.3922">
	<stop  offset="0" style="stop-color:#088AFB"/>
	<stop  offset="0.4155" style="stop-color:#18A3EB"/>
	<stop  offset="1" style="stop-color:#46E9BE"/>
</linearGradient>
<path fill="url(#SVGID_3_)" d="M38.5,48.7L29.1,25l-9.3,23.7c0,0.6,0.5,1.1,1.1,1.1h16.4C37.9,49.8,38.5,49.3,38.5,48.7z"/>
<linearGradient id="SVGID_4_" gradientUnits="userSpaceOnUse" x1="57.9506" y1="37.3922" x2="19.8034" y2="37.3922">
	<stop  offset="0" style="stop-color:#088AFB"/>
	<stop  offset="0.6466" style="stop-color:#37D3CC"/>
	<stop  offset="1" style="stop-color:#46E9BE"/>
</linearGradient>
<path fill="url(#SVGID_4_)" d="M38.5,48.7L29.1,25l-9.3,23.7c0,0.6,0.5,1.1,1.1,1.1h16.4C37.9,49.8,38.5,49.3,38.5,48.7z"/>
</svg>
