<?xml version="1.0" encoding="utf-8"?>
<!-- Generator: Adobe Illustrator 18.0.0, SVG Export Plug-In . SVG Version: 6.00 Build 0)  -->
<!DOCTYPE svg PUBLIC "-//W3C//DTD SVG 1.1//EN" "http://www.w3.org/Graphics/SVG/1.1/DTD/svg11.dtd">
<svg version="1.1" id="图层_1" xmlns="http://www.w3.org/2000/svg" xmlns:xlink="http://www.w3.org/1999/xlink" x="0px" y="0px"
	 viewBox="0 0 58.1 49.7" enable-background="new 0 0 58.1 49.7" xml:space="preserve">
<linearGradient id="SVGID_1_" gradientUnits="userSpaceOnUse" x1="4.5241" y1="0.4954" x2="26.4362" y2="22.4075">
	<stop  offset="0" style="stop-color:#088AFB"/>
	<stop  offset="1" style="stop-color:#46E9BE"/>
</linearGradient>
<path fill="url(#SVGID_1_)" d="M25.7,0.2H5.2c-0.6,0-1,0.5-1,1v20.5c0,0.5,0.4,1,1,1h20.5c0.6,0,1-0.5,1-1V1.2
	C26.7,0.7,26.3,0.2,25.7,0.2z"/>
<linearGradient id="SVGID_2_" gradientUnits="userSpaceOnUse" x1="-559.8202" y1="-598.1226" x2="-543.1812" y2="-581.4835" gradientTransform="matrix(0.7071 0.7071 -0.7071 0.7071 15.6685 818.9443)">
	<stop  offset="0" style="stop-color:#088AFB"/>
	<stop  offset="1" style="stop-color:#46E9BE"/>
</linearGradient>
<path fill="url(#SVGID_2_)" d="M54.2,11.2L43.5,0.4c-0.4-0.4-1-0.4-1.4,0L31.3,11.2c-0.4,0.4-0.4,1,0,1.4L42,23.4
	c0.4,0.4,1,0.4,1.4,0l10.8-10.8C54.6,12.2,54.6,11.6,54.2,11.2z M47.8,9.4L47,10.2c-0.3,0.3-0.9,0.3-1.3,0l-4.9-4.9
	c-0.3-0.3-0.3-0.9,0-1.3l0.8-0.8c0.3-0.3,0.9-0.3,1.3,0l4.9,4.9C48.1,8.5,48.1,9,47.8,9.4z"/>
<linearGradient id="SVGID_3_" gradientUnits="userSpaceOnUse" x1="4.5241" y1="27.4268" x2="26.4362" y2="49.3389">
	<stop  offset="0" style="stop-color:#088AFB"/>
	<stop  offset="1" style="stop-color:#46E9BE"/>
</linearGradient>
<path fill="url(#SVGID_3_)" d="M25.7,27.1H5.2c-0.6,0-1,0.5-1,1v20.5c0,0.5,0.4,1,1,1h20.5c0.6,0,1-0.5,1-1V28.1
	C26.7,27.6,26.3,27.1,25.7,27.1z"/>
<linearGradient id="SVGID_4_" gradientUnits="userSpaceOnUse" x1="31.1145" y1="27.4268" x2="53.0266" y2="49.339">
	<stop  offset="0" style="stop-color:#088AFB"/>
	<stop  offset="1" style="stop-color:#46E9BE"/>
</linearGradient>
<path fill="url(#SVGID_4_)" d="M52.3,27.1H31.8c-0.5,0-1,0.5-1,1v20.5c0,0.5,0.5,1,1,1h20.5c0.5,0,1-0.5,1-1V28.1
	C53.3,27.6,52.9,27.1,52.3,27.1z"/>
</svg>
