<?xml version="1.0" encoding="utf-8"?>
<!-- Generator: Adobe Illustrator 18.0.0, SVG Export Plug-In . SVG Version: 6.00 Build 0)  -->
<!DOCTYPE svg PUBLIC "-//W3C//DTD SVG 1.1//EN" "http://www.w3.org/Graphics/SVG/1.1/DTD/svg11.dtd">
<svg version="1.1" id="图层_1" xmlns="http://www.w3.org/2000/svg" xmlns:xlink="http://www.w3.org/1999/xlink" x="0px" y="0px"
	 viewBox="0 0 58.1 49.7" enable-background="new 0 0 58.1 49.7" xml:space="preserve">
<linearGradient id="SVGID_1_" gradientUnits="userSpaceOnUse" x1="8.4882" y1="6.7576" x2="47.2552" y2="45.5246">
	<stop  offset="0" style="stop-color:#088AFB"/>
	<stop  offset="1" style="stop-color:#46E9BE"/>
</linearGradient>
<polygon fill="url(#SVGID_1_)" points="25.3,29.8 33.2,25.1 25.3,20.4 "/>
<linearGradient id="SVGID_2_" gradientUnits="userSpaceOnUse" x1="7.071" y1="6.5712" x2="47.606" y2="47.1063">
	<stop  offset="0" style="stop-color:#088AFB"/>
	<stop  offset="1" style="stop-color:#46E9BE"/>
</linearGradient>
<polygon fill="url(#SVGID_2_)" points="24,31.2 33.3,25.1 24,19.2 "/>
<g>
	<linearGradient id="SVGID_3_" gradientUnits="userSpaceOnUse" x1="15.5033" y1="33.9104" x2="42.5433" y2="60.9503">
		<stop  offset="0" style="stop-color:#088AFB"/>
		<stop  offset="1" style="stop-color:#46E9BE"/>
	</linearGradient>
	<path fill="url(#SVGID_3_)" d="M53.5,49.5h-49c-0.5,0-1-0.5-1-1v-2.2c0-0.6,0.4-1,1-1h49c0.5,0,1,0.4,1,1v2.2
		C54.5,49.1,54.1,49.5,53.5,49.5z"/>
	<linearGradient id="SVGID_4_" gradientUnits="userSpaceOnUse" x1="15.5269" y1="-10.5338" x2="42.5197" y2="16.459">
		<stop  offset="0" style="stop-color:#088AFB"/>
		<stop  offset="1" style="stop-color:#46E9BE"/>
	</linearGradient>
	<path fill="url(#SVGID_4_)" d="M53.5,5h-49c-0.5,0-1-0.5-1-1V1.9c0-0.6,0.4-1,1-1h49c0.5,0,1,0.4,1,1V4C54.5,4.6,54.1,5,53.5,5z"/>
	<linearGradient id="SVGID_5_" gradientUnits="userSpaceOnUse" x1="8.7559" y1="4.8864" x2="49.2908" y2="45.4214">
		<stop  offset="0" style="stop-color:#088AFB"/>
		<stop  offset="1" style="stop-color:#46E9BE"/>
	</linearGradient>
	<path fill="url(#SVGID_5_)" d="M53.5,9.6h-49c-0.6,0-1,0.5-1,1v29.2c0,0.5,0.4,1,1,1h49c0.5,0,1-0.5,1-1V10.6
		C54.5,10,54.1,9.6,53.5,9.6z M35.4,26.5l-10.7,7c-0.7,0.7-1.9,0.7-2.6,0V16.8c0.7-0.7,1.9-0.7,2.6,0l10.7,7
		C36.2,24.6,36.2,25.7,35.4,26.5z"/>
</g>
</svg>
