<?xml version="1.0" encoding="UTF-8"?>
<svg width="12px" height="12px" viewBox="0 0 12 12" version="1.1" xmlns="http://www.w3.org/2000/svg" xmlns:xlink="http://www.w3.org/1999/xlink">
    <!-- Generator: Sketch 48.2 (47327) - http://www.bohemiancoding.com/sketch -->
    <title>Group 2</title>
    <desc>Created with Sketch.</desc>
    <defs></defs>
    <g id="Solid" stroke="none" stroke-width="1" fill="none" fill-rule="evenodd" transform="translate(-521.000000, -1251.000000)">
        <g id="Group-2" transform="translate(521.000000, 1251.000000)">
            <path d="M6.00001995,-2.08166882e-17 C9.31373343,-2.08166882e-17 12.000015,2.68629429 12.000015,5.9999832 C12.000015,9.31370946 9.31370853,12.0000038 6.00001995,12.0000038 C2.68630647,12.0000038 0,9.31370946 0,5.9999832 C0,2.68629429 2.68630647,-2.08166882e-17 6.00001995,-2.08166882e-17 Z" id="Shape" fill="#D6D6D6"></path>
            <path d="M6.40000954,8.19997511 C5.07452193,8.19997511 6.09689051,8.18609933 5.95139792,8.16200701 L4.89998265,8.80001506 L4.89998265,7.73786356 C4.35179476,7.35301647 4,6.76284656 4,6.09998493 C4,4.94018316 5.07452193,4 6.40000954,4 C7.72549715,4 8.80001908,4.94018316 8.80001908,6.09998493 C8.80001908,7.25979196 7.72549715,8.19997511 6.40000954,8.19997511 Z M7.60001701,6.39997078 C7.76570026,6.39997078 7.89999863,6.2656754 7.89999863,6.09998493 C7.89999863,5.93429971 7.76570026,5.80000434 7.60001701,5.80000434 C7.43432836,5.80000434 7.29999219,5.93429971 7.29999219,6.09998493 C7.29999219,6.2656754 7.43432836,6.39997078 7.60001701,6.39997078 Z M6.40000954,6.39997078 C6.56569819,6.39997078 6.69999116,6.2656754 6.69999116,6.09998493 C6.69999116,5.93429971 6.56569819,5.80000434 6.40000954,5.80000434 C6.23432629,5.80000434 6.09999012,5.93429971 6.09999012,6.09998493 C6.09999012,6.2656754 6.23432629,6.39997078 6.40000954,6.39997078 Z M5.20000747,6.39997078 C5.36569072,6.39997078 5.49998909,6.2656754 5.49998909,6.09998493 C5.49998909,5.93429971 5.36569072,5.80000434 5.20000747,5.80000434 C5.03431882,5.80000434 4.89998265,5.93429971 4.89998265,6.09998493 C4.89998265,6.2656754 5.03431882,6.39997078 5.20000747,6.39997078 Z" id="Icon" fill="#FFFFFF"></path>
        </g>
    </g>
</svg>