<?xml version="1.0" encoding="UTF-8"?>
<svg width="14px" height="14px" viewBox="0 0 14 14" version="1.1" xmlns="http://www.w3.org/2000/svg" xmlns:xlink="http://www.w3.org/1999/xlink">
    <!-- Generator: Sketch 48.2 (47327) - http://www.bohemiancoding.com/sketch -->
    <title>search</title>
    <desc>Created with Sketch.</desc>
    <defs></defs>
    <g id="首页-1" stroke="none" stroke-width="1" fill="none" fill-rule="evenodd" transform="translate(-30.000000, -29.000000)">
        <path d="M40.8161001,38.8835467 C41.6494155,37.8334084 42.1494048,36.5170355 42.1494048,35.0833621 C42.1663311,31.7330129 39.4332965,29 36.0832019,29 C32.7331089,29 30,31.7330129 30,35.0833621 C30,38.4337113 32.7329406,41.1667242 36.0832019,41.1667242 C37.5167711,41.1667242 38.8331428,40.6667218 39.8832868,39.8333845 L42.8662244,42.8163991 C42.9996848,42.9335864 43.1663513,43 43.3330143,43 C43.4996774,43 43.6663405,42.933593 43.7998043,42.8001324 C44.0667319,42.5331978 44.0667319,42.1165287 43.7998043,41.8502607 L40.8161001,38.8835467 Z M31.333304,35.0833621 C31.333304,32.4668497 33.4667581,30.3333396 36.0832019,30.3333396 C38.6996456,30.3333396 40.8330998,32.4668497 40.8330998,35.0833621 C40.8330998,37.6998745 38.6996456,39.8333845 36.0832019,39.8333845 C33.4667581,39.8333845 31.333304,37.6998745 31.333304,35.0833621 Z" id="search" fill="#FFFFFF"></path>
    </g>
</svg>